<?xml version="1.0" encoding="UTF-8"?>
<svg id="Layer_1" data-name="Layer 1" xmlns="http://www.w3.org/2000/svg" viewBox="0 0 31 31">
  <defs>
    <style>
      .cls-1 {
        fill: #1f7a78;
      }
    </style>
  </defs>
  <path class="cls-1" d="M14.45,8.38c1.11,0,2.2.38,3.07,1.07l6.14,4.84,3.93-3.11c.59-.46.59-1.36,0-1.82L16.53.61c-.3-.24-.67-.36-1.03-.36s-.73.12-1.03.36l-9.8,7.76,9.77.02Z"/>
  <path class="cls-1" d="M16.56,22.65c-1.11,0-2.21-.38-3.08-1.07l-6.15-4.86-3.93,3.11c-.59.46-.59,1.36,0,1.82l11.07,8.74c.3.24.66.36,1.03.36s.73-.12,1.03-.36l9.79-7.73h-9.76Z"/>
  <path class="cls-1" d="M27.58,19.82s0,0,0,0l-3.92-3.09-4.56,3.6c-.17.13-.07.4.14.4h7.95c.44.01.65.17.77.41.05-.14.07-.28.07-.39,0-.21-.05-.61-.46-.94Z"/>
  <path class="cls-1" d="M16.33,10.95c-.27-.21-.57-.38-.89-.49-.32-.11-.66-.17-1-.17l-10.61-.02c-.46,0-.7-.09-.8-.4-.08.22-.08.38-.06.55.02.17.1.38.21.53.06.08.14.16.24.24,0,0,0,0,0,0l10.96,8.66h0s.26.23.5.38c.28.18.59.32.91.4,0,0,.01,0,.02,0,.24.06.49.09.75.09h.3c-.1-.12-.21-.39-.17-.67.03-.16.1-.33.25-.46l5.17-4.08-5.78-4.56Z"/>
</svg>